<svg width="97" height="96" viewBox="0 0 97 96" fill="none" xmlns="http://www.w3.org/2000/svg">
<path d="M33.625 78.5625H63.375" stroke="#6A7278" stroke-width="2" stroke-linecap="round"/>
<path d="M45.3125 69V78.5625" stroke="#6A7278" stroke-width="2" stroke-linecap="round"/>
<path d="M51.6875 69V78.5625" stroke="#6A7278" stroke-width="2" stroke-linecap="round"/>
<path d="M82.5 65V41.375V22C82.5 19.7909 80.7091 18 78.5 18H18.5C16.2909 18 14.5 19.7909 14.5 22V65C14.5 67.2091 16.2909 69 18.5 69H78.5C80.7091 69 82.5 67.2091 82.5 65Z" stroke="#6A7278" stroke-width="2" stroke-linecap="round"/>
<path d="M14.5 58.375H82.5" stroke="#6A7278" stroke-width="2"/>
<path d="M50.3462 26L51.3268 25.8039L51.166 25H50.3462V26ZM46.6539 26V25H45.8341L45.6733 25.8039L46.6539 26ZM50.9667 29.1025L49.9861 29.2987L50.1068 29.9022L50.7001 30.0663L50.9667 29.1025ZM53.0466 29.9648L52.5533 30.8347L53.0889 31.1384L53.6013 30.7968L53.0466 29.9648ZM55.6798 28.2093L56.3869 27.5022L55.8073 26.9225L55.1251 27.3772L55.6798 28.2093ZM58.2907 30.8201L59.1228 31.3748L59.5775 30.6927L58.9978 30.113L58.2907 30.8201ZM56.5352 33.4533L55.7032 32.8986L55.3616 33.411L55.6654 33.9466L56.5352 33.4533ZM57.3976 35.5335L56.4338 35.8001L56.5979 36.3933L57.2015 36.514L57.3976 35.5335ZM60.5 36.1539H61.5V35.3341L60.6961 35.1734L60.5 36.1539ZM60.5 39.8463L60.6961 40.8268L61.5 40.6661V39.8463H60.5ZM57.3976 40.4667L57.2015 39.4862L56.5979 39.6069L56.4338 40.2001L57.3976 40.4667ZM56.5353 42.5468L55.6654 42.0535L55.3617 42.5891L55.7032 43.1015L56.5353 42.5468ZM58.2907 45.1799L58.9978 45.887L59.5775 45.3073L59.1228 44.6252L58.2907 45.1799ZM55.6799 47.7908L55.1252 48.6228L55.8073 49.0776L56.387 48.4979L55.6799 47.7908ZM53.0467 46.0353L53.6014 45.2033L53.0891 44.8617L52.5534 45.1655L53.0467 46.0353ZM50.9666 46.8977L50.7 45.9339L50.1068 46.098L49.986 46.7016L50.9666 46.8977ZM50.3461 50.0001V51.0001H51.1659L51.3267 50.1963L50.3461 50.0001ZM46.6538 50.0001L45.6732 50.1963L45.834 51.0001H46.6538V50.0001ZM46.0333 46.8976L47.0139 46.7015L46.8932 46.098L46.2999 45.9338L46.0333 46.8976ZM43.9534 46.0354L44.4467 45.1655L43.911 44.8618L43.3987 45.2033L43.9534 46.0354ZM41.3202 47.7909L40.6131 48.498L41.1927 49.0777L41.8749 48.6229L41.3202 47.7909ZM38.7093 45.18L37.8772 44.6253L37.4225 45.3074L38.0022 45.8871L38.7093 45.18ZM40.4648 42.5468L41.2968 43.1015L41.6384 42.5891L41.3347 42.0535L40.4648 42.5468ZM39.6024 40.4667L40.5663 40.2001L40.4021 39.6068L39.7986 39.4861L39.6024 40.4667ZM36.5 39.8462H35.5V40.666L36.3039 40.8268L36.5 39.8462ZM36.5 36.1539L36.3039 35.1733L35.5 35.3341V36.1539H36.5ZM39.6025 35.5334L39.7986 36.514L40.4022 36.3933L40.5663 35.8L39.6025 35.5334ZM40.4647 33.4535L41.3346 33.9467L41.6384 33.4111L41.2968 32.8988L40.4647 33.4535ZM38.7093 30.8202L38.0022 30.1131L37.4225 30.6928L37.8772 31.3749L38.7093 30.8202ZM41.3201 28.2094L41.8748 27.3773L41.1927 26.9226L40.613 27.5023L41.3201 28.2094ZM43.9533 29.9648L43.3986 30.7969L43.911 31.1385L44.4466 30.8347L43.9533 29.9648ZM46.0334 29.1025L46.3 30.0663L46.8932 29.9022L47.0139 29.2987L46.0334 29.1025ZM50.3462 25H46.6539V27H50.3462V25ZM51.9473 28.9064L51.3268 25.8039L49.3656 26.1961L49.9861 29.2987L51.9473 28.9064ZM53.5398 29.0949C52.821 28.6873 52.0476 28.364 51.2333 28.1387L50.7001 30.0663C51.3539 30.2472 51.9753 30.5069 52.5533 30.8347L53.5398 29.0949ZM53.6013 30.7968L56.2345 29.0413L55.1251 27.3772L52.4919 29.1327L53.6013 30.7968ZM54.9727 28.9164L57.5836 31.5272L58.9978 30.113L56.3869 27.5022L54.9727 28.9164ZM57.4587 30.2654L55.7032 32.8986L57.3673 34.008L59.1228 31.3748L57.4587 30.2654ZM58.3614 35.2669C58.1361 34.4524 57.8128 33.679 57.4051 32.9601L55.6654 33.9466C55.9932 34.5247 56.2529 35.1462 56.4338 35.8001L58.3614 35.2669ZM60.6961 35.1734L57.5937 34.5529L57.2015 36.514L60.3039 37.1345L60.6961 35.1734ZM61.5 39.8463V36.1539H59.5V39.8463H61.5ZM57.5937 41.4473L60.6961 40.8268L60.3039 38.8657L57.2015 39.4862L57.5937 41.4473ZM57.4052 43.04C57.8128 42.3211 58.1361 41.5477 58.3614 40.7334L56.4338 40.2001C56.2529 40.854 55.9932 41.4754 55.6654 42.0535L57.4052 43.04ZM59.1228 44.6252L57.3673 41.9921L55.7032 43.1015L57.4587 45.7346L59.1228 44.6252ZM56.387 48.4979L58.9978 45.887L57.5836 44.4728L54.9728 47.0837L56.387 48.4979ZM52.492 46.8674L55.1252 48.6228L56.2346 46.9587L53.6014 45.2033L52.492 46.8674ZM51.2332 47.8615C52.0476 47.6362 52.8211 47.3129 53.54 46.9052L52.5534 45.1655C51.9753 45.4933 51.3539 45.753 50.7 45.9339L51.2332 47.8615ZM51.3267 50.1963L51.9472 47.0938L49.986 46.7016L49.3656 49.804L51.3267 50.1963ZM46.6538 51.0001H50.3461V49.0001H46.6538V51.0001ZM45.0527 47.0938L45.6732 50.1963L47.6344 49.804L47.0139 46.7015L45.0527 47.0938ZM43.4601 46.9053C44.179 47.3129 44.9524 47.6362 45.7667 47.8614L46.2999 45.9338C45.6461 45.753 45.0247 45.4933 44.4467 45.1655L43.4601 46.9053ZM41.8749 48.6229L44.5081 46.8674L43.3987 45.2033L40.7655 46.9588L41.8749 48.6229ZM38.0022 45.8871L40.6131 48.498L42.0273 47.0838L39.4164 44.4729L38.0022 45.8871ZM39.6327 41.9921L37.8772 44.6253L39.5413 45.7347L41.2968 43.1015L39.6327 41.9921ZM38.6386 40.7333C38.8639 41.5477 39.1872 42.3212 39.5949 43.0401L41.3347 42.0535C41.0068 41.4754 40.7471 40.854 40.5663 40.2001L38.6386 40.7333ZM36.3039 40.8268L39.4063 41.4473L39.7986 39.4861L36.6961 38.8656L36.3039 40.8268ZM35.5 36.1539V39.8462H37.5V36.1539H35.5ZM39.4064 34.5528L36.3039 35.1733L36.6961 37.1345L39.7986 36.514L39.4064 34.5528ZM39.5949 32.9602C39.1872 33.679 38.8639 34.4524 38.6387 35.2668L40.5663 35.8C40.7472 35.1462 41.0068 34.5248 41.3346 33.9467L39.5949 32.9602ZM37.8772 31.3749L39.6327 34.0082L41.2968 32.8988L39.5413 30.2655L37.8772 31.3749ZM40.613 27.5023L38.0022 30.1131L39.4164 31.5273L42.0272 28.9165L40.613 27.5023ZM44.508 29.1328L41.8748 27.3773L40.7654 29.0414L43.3986 30.7969L44.508 29.1328ZM45.7668 28.1387C44.9524 28.364 44.179 28.6873 43.4601 29.095L44.4466 30.8347C45.0247 30.5069 45.6461 30.2472 46.3 30.0663L45.7668 28.1387ZM45.6733 25.8039L45.0528 28.9064L47.0139 29.2987L47.6344 26.1961L45.6733 25.8039Z" fill="#6A7278"/>
<circle cx="48.5" cy="38.0009" r="3.69232" stroke="#6A7278" stroke-width="2"/>
</svg>
