<svg width="97" height="96" viewBox="0 0 97 96" fill="none" xmlns="http://www.w3.org/2000/svg">
<path d="M40.2961 33.4414L43.1289 38.3479" stroke="#6A7278" stroke-width="2" stroke-linecap="round"/>
<path d="M47.8445 29.084L50.6773 33.9904" stroke="#6A7278" stroke-width="2" stroke-linecap="round"/>
<path d="M49.4481 49.293L60.997 69.2962" stroke="#6A7278" stroke-width="2" stroke-linecap="round"/>
<path d="M67.02 62.2969L68.5453 64.9388" stroke="#6A7278" stroke-width="2" stroke-linecap="round"/>
<rect x="17.48" y="56.6777" width="13.0742" height="24.4052" rx="2" transform="rotate(-30 17.48 56.6777)" stroke="#6A7278" stroke-width="2"/>
<path d="M30.11 52.4065L36.1487 48.92C38.4133 47.6126 40.8373 45.7098 42.2729 40.3519C42.6063 39.5714 42.9244 39.0288 43.2776 38.6057C43.8314 37.9424 44.4717 37.5727 45.3934 37.0406L52.7194 32.811C53.676 32.2587 54.8992 32.5864 55.4515 33.543L63.1588 46.8925C63.4123 47.3316 63.2994 47.8998 62.8359 48.1055C60.4446 49.167 55.7154 48.8175 51.5218 41.554M40.1336 69.7678L48.4368 64.9739C49.3901 64.5912 51.5855 64.5181 53.7363 65.4368C55.7402 66.2928 56.9308 66.6118 58.8179 65.5223" stroke="#6A7278" stroke-width="2" stroke-linecap="round"/>
<path d="M51.5218 41.5532C52.0886 43.4066 52.0145 47.8107 47.1835 50.5998" stroke="#6A7278" stroke-width="2" stroke-linecap="round"/>
<path d="M40.2977 33.4433C35.8977 34.0119 31.3845 31.951 29.0277 27.8689C26.7498 23.9234 27.1144 19.1774 29.5723 15.6803C29.9626 15.125 30.7767 15.2092 31.116 15.7969L35.8213 23.9467C36.784 25.6142 38.9163 26.1855 40.5838 25.2228C42.2514 24.26 42.8227 22.1278 41.86 20.4602L37.1547 12.3104C36.8154 11.7227 37.1495 10.9756 37.8255 10.9153C42.0831 10.5352 46.3756 12.5925 48.6535 16.538C51.0103 20.62 50.5384 25.559 47.8461 29.0852" stroke="#6A7278" stroke-width="2"/>
<path d="M61.0507 69.3894C58.3583 72.9156 57.8865 77.8546 60.2433 81.9367C62.5212 85.8822 66.8137 87.9394 71.0713 87.5593C71.7472 87.499 72.0814 86.7519 71.7421 86.1642L67.0368 78.0144C66.0741 76.3469 66.6454 74.2146 68.313 73.2518C69.9805 72.2891 72.1128 72.8604 73.0755 74.5279L77.7808 82.6777C78.1201 83.2654 78.9342 83.3496 79.3244 82.7943C81.7824 79.2972 82.147 74.5512 79.8691 70.6057C77.5123 66.5236 72.9991 64.4627 68.5991 65.0313" stroke="#6A7278" stroke-width="2" stroke-linecap="round"/>
<rect x="62.0239" y="57.1289" width="13.9458" height="6.9729" rx="3.48645" transform="rotate(-30 62.0239 57.1289)" stroke="#6A7278" stroke-width="2"/>
<rect x="58.5374" y="51.0898" width="13.9458" height="6.9729" rx="3.48645" transform="rotate(-30 58.5374 51.0898)" stroke="#6A7278" stroke-width="2"/>
<path d="M59.899 41.2461L65.1829 38.1954C66.8505 37.2327 68.9827 37.804 69.9455 39.4716V39.4716C70.9083 41.1391 70.3369 43.2714 68.6694 44.2342L63.3855 47.2848" stroke="#6A7278" stroke-width="2"/>
<path d="M59.4633 40.4918L64.7471 37.4412C66.4147 36.4784 66.986 34.3462 66.0233 32.6786V32.6786C65.0605 31.0111 62.9282 30.4397 61.2607 31.4025L55.9768 34.4531" stroke="#6A7278" stroke-width="2"/>
</svg>
