<svg width="97" height="96" viewBox="0 0 97 96" fill="none" xmlns="http://www.w3.org/2000/svg">
<path d="M16.5 32L32.5 37L30.5 25.5L41.5 32.5L48.5 16L56.5 32L64.5 24V37L80.5 32" stroke="#6A7278" stroke-width="2" stroke-linecap="round"/>
<path d="M16.5 40L30.4623 43.4906C31.7382 43.8095 32.7757 44.7353 33.2375 45.9667L37 56L45.2716 61.7542C47.2321 63.118 48.1971 65.5145 47.7287 67.8563L46.5883 73.5583C46.2634 75.1829 44.6829 76.2366 43.0583 75.9117L38.5 75" stroke="#6A7278" stroke-width="2" stroke-linecap="round"/>
<circle cx="31.5" cy="74" r="7" stroke="#6A7278" stroke-width="2"/>
<circle cx="64.5" cy="74" r="7" stroke="#6A7278" stroke-width="2"/>
<path d="M14.5 71L23.5 72.5" stroke="#6A7278" stroke-width="2" stroke-linecap="round"/>
<path d="M82.5 56H54.1C51.3554 56 49.4261 58.701 50.3162 61.2973L54.0367 72.1486C54.3138 72.957 55.074 73.5 55.9286 73.5H57.5M82.5 73.5H71.5" stroke="#6A7278" stroke-width="2" stroke-linecap="round"/>
<path d="M82.5 44H65.383C63.6613 44 62.1328 45.1017 61.5883 46.7351L58.5 56" stroke="#6A7278" stroke-width="2" stroke-linecap="round"/>
<path d="M37 56L49 49L52 49.5" stroke="#6A7278" stroke-width="2" stroke-linecap="round"/>
</svg>
