<svg width="97" height="96" viewBox="0 0 97 96" fill="none" xmlns="http://www.w3.org/2000/svg">
<path d="M17.3 50.4004C17.3 47.0867 19.9863 44.4004 23.3 44.4004H27.3C28.4046 44.4004 29.3 45.2958 29.3 46.4004V61.6004C29.3 62.705 28.4046 63.6004 27.3 63.6004H23.3C19.9863 63.6004 17.3 60.9141 17.3 57.6004V50.4004Z" stroke="#6A7278" stroke-width="2"/>
<path d="M67.7 46.4004C67.7 45.2958 68.5954 44.4004 69.7 44.4004H73.7C77.0137 44.4004 79.7 47.0867 79.7 50.4004V57.6004C79.7 60.9141 77.0137 63.6004 73.7 63.6004H69.7C68.5954 63.6004 67.7 62.705 67.7 61.6004V46.4004Z" stroke="#6A7278" stroke-width="2"/>
<path d="M73.7 63.6016V63.6016C73.7 69.5662 68.8647 74.4016 62.9 74.4016H58.1" stroke="#6A7278" stroke-width="2"/>
<path d="M41.3 73.6016C41.3 71.3924 43.0908 69.6016 45.3 69.6016H54.1C56.3091 69.6016 58.1 71.3924 58.1 73.6016V75.2016C58.1 77.4107 56.3091 79.2016 54.1 79.2016H45.3C43.0909 79.2016 41.3 77.4107 41.3 75.2016V73.6016Z" stroke="#6A7278" stroke-width="2"/>
<path d="M72.5 44.4008V39.6008C72.5 26.3459 61.7548 16.8008 48.5 16.8008C35.2452 16.8008 24.5 27.5459 24.5 40.8008V44.4008M67.7 46.8008V40.8008C67.7 30.1969 59.1039 21.6008 48.5 21.6008C37.8961 21.6008 29.3 30.1969 29.3 40.8008C29.3 40.8008 29.3 43.0517 29.3 46.8008" stroke="#6A7278" stroke-width="2"/>
</svg>
