<svg width="97" height="96" viewBox="0 0 97 96" fill="none" xmlns="http://www.w3.org/2000/svg">
<path d="M38.5 24C38.5 25.1046 37.6046 26 36.5 26C35.3954 26 34.5 25.1046 34.5 24C34.5 22.8954 35.3954 22 36.5 22C37.6046 22 38.5 22.8954 38.5 24Z" fill="#D9D9D9"/>
<path d="M17.5 72H54.5V75C54.5 77.2091 52.7091 79 50.5 79H21.5C19.2909 79 17.5 77.2091 17.5 75V21C17.5 18.7909 19.2909 17 21.5 17H50.5C52.7091 17 54.5 18.7909 54.5 21V33M38.5 24C38.5 25.1046 37.6046 26 36.5 26C35.3954 26 34.5 25.1046 34.5 24C34.5 22.8954 35.3954 22 36.5 22C37.6046 22 38.5 22.8954 38.5 24Z" stroke="#6A7278" stroke-width="2" stroke-linecap="round"/>
<path d="M63.9586 48.8755L57.6254 42.5422C56.4369 41.3537 54.5236 41.3399 53.352 42.5115C52.1805 43.6831 52.1942 45.5963 53.3828 46.7849" stroke="#6A7278" stroke-width="2" stroke-linecap="round"/>
<path d="M68.2012 44.6333L61.868 38.3C60.6795 37.1115 58.7662 37.0977 57.5946 38.2693C56.4231 39.4409 56.4368 41.3541 57.6254 42.5427" stroke="#6A7278" stroke-width="2" stroke-linecap="round"/>
<path d="M63.2823 39.7137C62.0937 38.5252 62.08 36.6119 63.2515 35.4403C64.4231 34.2688 66.3364 34.2825 67.5249 35.4711L73.8581 41.8043C78.4543 46.1648 85.5254 57.0071 77.0401 65.4924C71.0297 71.5028 64.6657 70.0886 61.1302 69.3815L48.9516 65.52C47.5888 65.0879 46.6933 63.7859 46.7773 62.3587C46.8886 60.465 48.6483 59.1069 50.5084 59.4789L56.6231 60.7019C56.9141 60.7601 57.1039 60.4054 56.894 60.1956L38.8563 42.1579C37.4895 40.791 37.4895 38.5749 38.8563 37.2081C40.2232 35.8413 42.4393 35.8413 43.8061 37.2081L59.716 53.118" stroke="#6A7278" stroke-width="2" stroke-linecap="round"/>
</svg>
