<svg width="97" height="96" viewBox="0 0 97 96" fill="none" xmlns="http://www.w3.org/2000/svg">
<path d="M74.9 74.4016C80.3 74.4016 82.1 68.6017 82.1 67.2017L83.3 57.6017L67.7 52.8016C53.3 47.4016 42.5 50.4016 38.9 52.8016L28.1 60.0016H23.3C14.18 60.0016 11.5 66.4016 11.3 69.6016V74.4016H22.1M36.5 74.4016L60.5 74.4017" stroke="#6A7278" stroke-width="2"/>
<circle cx="29.3" cy="73.202" r="7.2" stroke="#6A7278" stroke-width="2"/>
<circle cx="67.7" cy="73.202" r="7.2" stroke="#6A7278" stroke-width="2"/>
<path d="M28.1 60.0012L47.3 59.6172M71.3 54.0012L66.5 59.4012L47.3 59.6172M52.1 49.2012L47.3 59.6172" stroke="#6A7278" stroke-width="2"/>
<circle cx="29.3" cy="73.2008" r="2.4" fill="#6A7278"/>
<circle cx="67.7" cy="73.2008" r="2.4" fill="#6A7278"/>
<path d="M80.9 57.002L70.7 66.602" stroke="#6A7278" stroke-width="2"/>
<circle cx="48.5" cy="28.8004" r="14.4" stroke="#6A7278" stroke-width="2"/>
<path d="M42.5 30.4012L50.5 19.2012L48.9 27.2012H55.3L47.3 38.4012L48.9 30.4012H42.5Z" fill="#6A7278"/>
</svg>
