<svg width="300" height="200" viewBox="0 0 300 200" fill="none" xmlns="http://www.w3.org/2000/svg">
<path d="M283.288 187.5H16.7122C16.1136 187.5 15.625 187.075 15.625 186.562C15.625 186.05 16.1136 185.625 16.7122 185.625H283.288C283.886 185.625 284.375 186.05 284.375 186.562C284.375 187.075 283.886 187.5 283.288 187.5Z" fill="#05141F"/>
<path d="M181.603 144.072C186.129 143.277 197.21 141.271 211.814 144.036C212.915 144.243 213.869 144.941 214.383 145.944C215.288 147.717 216.952 151.032 219.459 156.022C219.459 156.022 223.936 158.358 226.247 160.633C226.981 161.355 227.385 162.346 227.385 163.361V177.5C227.385 177.5 227.287 179.457 224.78 179.457L167.672 179.372C167.672 179.372 165.434 178.992 165.434 176.473V163.385C165.434 162.395 165.862 161.441 166.608 160.792C168.027 159.569 170.558 157.588 173.347 156.475C173.347 156.475 176.992 149.723 178.961 145.98C179.5 144.965 180.478 144.256 181.616 144.048L181.603 144.072Z" fill="white"/>
<path d="M224.767 180.387L167.66 180.301C167.66 180.301 167.562 180.301 167.501 180.289C166.461 180.106 164.492 179.09 164.492 176.485V163.398C164.492 162.138 165.042 160.939 165.984 160.108C167.562 158.738 169.971 156.903 172.674 155.753C173.384 154.42 176.405 148.83 178.13 145.565C178.802 144.293 180.001 143.412 181.432 143.155L181.579 143.131C186.3 142.299 197.357 140.354 211.973 143.131C213.38 143.4 214.554 144.268 215.19 145.528C216.071 147.265 217.71 150.494 220.132 155.35C221.147 155.9 224.792 157.93 226.871 159.973C227.764 160.854 228.278 162.089 228.278 163.361V177.5C228.229 178.528 227.434 180.375 224.755 180.375L224.767 180.387ZM167.757 178.467L224.767 178.552C226.247 178.552 226.431 177.708 226.455 177.451V163.373C226.455 162.59 226.137 161.832 225.599 161.294C223.41 159.141 219.08 156.866 219.031 156.842C218.86 156.756 218.725 156.609 218.639 156.438C216.144 151.448 214.469 148.133 213.563 146.36C213.184 145.614 212.487 145.1 211.643 144.941C197.357 142.238 186.532 144.146 181.909 144.953L181.762 144.977C180.894 145.124 180.172 145.662 179.769 146.433C177.799 150.176 174.154 156.927 174.154 156.927C174.057 157.111 173.885 157.27 173.69 157.343C170.962 158.432 168.455 160.413 167.207 161.502C166.657 161.979 166.339 162.676 166.339 163.398V176.485C166.339 177.99 167.415 178.381 167.757 178.467Z" fill="#05141F"/>
<path d="M177.298 179.494V183.212C177.298 184.668 176.111 185.854 174.656 185.854H170.485C169.029 185.854 167.843 184.668 167.843 183.212V179.494H177.31H177.298Z" fill="#05141F"/>
<path d="M225.465 180.314H167.55L174.888 173.892C175.402 173.44 175.891 172.999 176.356 172.571C178.839 170.321 180.796 168.535 183.768 168.535H207.815C210.738 168.535 212.377 169.88 215.105 172.106C215.655 172.559 216.267 173.06 216.952 173.599L225.452 180.301L225.465 180.314ZM172.43 178.479H220.168L215.814 175.054C215.117 174.504 214.505 174.002 213.943 173.537C211.362 171.434 210.078 170.37 207.815 170.37H183.768C181.493 170.37 179.94 171.788 177.579 173.929C177.114 174.357 176.613 174.81 176.087 175.262L172.43 178.467V178.479Z" fill="#05141F"/>
<path d="M167.366 151.142H171.047C172.185 151.142 173.115 152.071 173.115 153.209V155.863H167.708C166.522 155.863 165.556 154.897 165.556 153.71V152.94C165.556 151.937 166.363 151.13 167.366 151.13V151.142Z" fill="white"/>
<path d="M174.044 156.781H167.721C166.033 156.781 164.651 155.411 164.651 153.711V152.94C164.651 151.436 165.874 150.212 167.378 150.212H171.06C172.711 150.212 174.044 151.558 174.044 153.197V156.768V156.781ZM167.366 152.059C166.877 152.059 166.473 152.463 166.473 152.952V153.723C166.473 154.408 167.023 154.958 167.708 154.958H172.197V153.221C172.197 152.585 171.684 152.072 171.048 152.072H167.366V152.059Z" fill="#05141F"/>
<path d="M225.049 155.863H219.643V153.209C219.643 152.072 220.572 151.142 221.71 151.142H225.391C226.394 151.142 227.201 151.949 227.201 152.952V153.723C227.201 154.909 226.235 155.875 225.049 155.875V155.863Z" fill="white"/>
<path d="M225.049 156.781H218.725V153.209C218.725 151.558 220.071 150.225 221.71 150.225H225.391C226.896 150.225 228.119 151.448 228.119 152.952V153.723C228.119 155.411 226.749 156.793 225.049 156.793V156.781ZM220.56 154.946H225.049C225.734 154.946 226.284 154.395 226.284 153.711V152.94C226.284 152.451 225.88 152.047 225.391 152.047H221.71C221.073 152.047 220.56 152.561 220.56 153.197V154.934V154.946Z" fill="#05141F"/>
<path d="M196.085 159.129C183.414 159.129 173.347 157.417 173.188 157.392L173.506 155.582C173.751 155.631 198.605 159.838 219.239 154.885L219.667 156.671C211.888 158.542 203.534 159.129 196.085 159.129Z" fill="#05141F"/>
<path d="M181.126 167.287L172.491 167.092C171.843 167.079 171.219 166.786 170.791 166.297C170.142 165.563 168.662 163.667 168.87 161.942C168.956 161.233 169.323 160.621 169.922 160.205C170.363 159.814 172.613 158.64 179.927 162.089C180.833 162.505 182.998 163.618 183.364 164.817C183.462 165.135 183.438 165.453 183.328 165.746C183.193 166.345 182.618 167.214 181.126 167.287ZM171.977 161.551C171.268 161.551 170.999 161.698 170.986 161.698C170.803 161.832 170.717 161.967 170.693 162.162C170.607 162.908 171.39 164.205 172.173 165.086C172.271 165.196 172.405 165.257 172.54 165.257L181.102 165.453C181.395 165.44 181.53 165.343 181.542 165.318V165.257C181.236 164.89 180.184 164.217 179.157 163.74C175.267 161.906 173.09 161.551 171.977 161.551Z" fill="#05141F"/>
<path d="M218.908 167.324L210.873 167.275C209.221 167.189 208.708 166.15 208.659 165.563C208.451 164.058 210.628 162.737 211.961 162.077C219.043 158.615 221.232 159.814 221.746 160.254C222.26 160.621 222.615 161.221 222.7 161.918C222.908 163.63 221.477 165.526 220.853 166.26C220.511 166.651 219.703 167.299 218.933 167.312L218.908 167.324ZM210.506 165.379C210.506 165.379 210.689 165.428 210.921 165.44L218.896 165.489C218.896 165.489 219.3 165.245 219.434 165.086C220.18 164.205 220.951 162.896 220.865 162.15C220.841 161.954 220.755 161.82 220.584 161.685C220.56 161.673 218.872 160.744 212.768 163.728C211.741 164.242 210.652 165.024 210.481 165.379V165.416C210.481 165.416 210.481 165.391 210.518 165.391L210.506 165.379Z" fill="#05141F"/>
<path d="M225.257 179.506V183.225C225.257 184.68 224.07 185.867 222.615 185.867H218.444C216.988 185.867 215.802 184.68 215.802 183.225V179.506H225.269H225.257Z" fill="#05141F"/>
<path d="M139.375 186.25H75C75 186.25 75.2524 181.292 78.6405 170.529L79.1787 168.633L137.901 172.388L139.375 186.25Z" fill="#05141F"/>
<path d="M153.117 143.51C148.603 143.852 146.573 141.137 146.133 137.883L144.958 131.474L137.546 149.466L138.72 172.265L78.4204 168.828L85.0986 139.339L75.0323 146.983C72.1702 149.637 67.7302 149.552 64.9782 146.787C63.2291 145.038 62.4953 142.531 63.0212 140.121L73.6869 93.7284C75.1669 86.1572 80.1083 79.5401 87.2758 76.042L108.032 65.939L119.028 66.7218L140.445 69.9141C152.432 71.6999 155.807 84.0657 158.755 95.8688L158.975 134.593C158.975 134.593 158.413 143.179 153.104 143.51H153.117Z" fill="white"/>
<path d="M138.733 173.17C138.733 173.17 138.696 173.17 138.684 173.17L78.3836 169.733C78.1145 169.721 77.8699 169.587 77.6987 169.366C77.5274 169.146 77.4785 168.877 77.5396 168.608L83.6675 141.577L75.6071 147.705C72.4392 150.64 67.4611 150.555 64.3421 147.436C62.3729 145.467 61.5412 142.653 62.1405 139.926L72.8062 93.5205C74.3473 85.6069 79.619 78.7574 86.8843 75.2225L107.641 65.1195C107.788 65.0461 107.947 65.0095 108.106 65.0339L119.101 65.8167L140.592 69.0091C153.496 70.9294 156.908 84.6406 159.66 95.6487C159.672 95.7221 159.685 95.7955 159.685 95.8689L159.905 134.605C159.88 135.058 159.22 144.06 153.178 144.451C148.774 144.782 145.802 142.384 145.227 138.03L144.628 134.728L138.488 149.637L139.65 172.229C139.662 172.485 139.564 172.742 139.381 172.926C139.21 173.097 138.977 173.195 138.733 173.195V173.17ZM79.57 167.96L137.766 171.275L136.641 149.491C136.641 149.356 136.653 149.222 136.714 149.099L144.127 131.107C144.286 130.728 144.665 130.508 145.068 130.544C145.472 130.593 145.802 130.887 145.876 131.291L147.05 137.712C147.319 139.706 148.432 142.935 153.055 142.592C157.495 142.311 158.07 134.605 158.07 134.532L157.838 95.979C154.523 82.6958 151.098 72.4216 140.31 70.8071L118.893 67.6147L108.216 66.8686L87.6793 76.8738C80.9277 80.164 76.0352 86.5364 74.5919 93.9119L63.914 140.342C63.4615 142.445 64.0975 144.623 65.6264 146.152C68.0482 148.573 71.901 148.647 74.4084 146.323L84.5481 138.617C84.8539 138.385 85.282 138.372 85.6 138.58C85.918 138.788 86.0893 139.18 86.0037 139.559L79.5578 167.997L79.57 167.96Z" fill="#05141F"/>
<path d="M128.397 39.6543C128.397 39.6543 131.907 36.364 129.29 29.38C126.672 22.396 113.487 28.6706 108.925 32.5112C103.396 37.1591 107.983 49.4515 107.983 49.4515C107.983 49.4515 105.292 43.1035 97.88 46.3814C92.6818 48.6809 93.6358 55.9463 94.1006 60.5819C94.3941 63.4929 92.4983 64.8017 92.4983 64.8017C92.4983 64.8017 99.9104 64.6549 100.412 57.2061C100.791 51.5308 108.277 51.5797 108.277 51.5797L128.397 39.6665V39.6543Z" fill="#05141F"/>
<path d="M92.4861 65.4011C92.217 65.4011 91.9846 65.2298 91.899 64.973C91.8133 64.7161 91.899 64.4348 92.1313 64.288C92.1925 64.2391 93.7214 63.1261 93.4646 60.6309L93.4156 60.0927C92.9386 55.3592 92.2047 48.2162 97.6109 45.8189C100.155 44.6813 102.479 44.5223 104.485 45.3051C105.255 45.6109 105.916 46.0268 106.442 46.4793C105.427 42.3941 104.485 35.4223 108.521 32.0342C112.019 29.0865 120.924 24.4998 126.159 25.8697C127.969 26.3467 129.204 27.4475 129.84 29.1599C132.568 36.4375 128.96 39.9479 128.801 40.0946C128.764 40.1313 128.727 40.1558 128.691 40.1802L108.57 52.0935C108.472 52.1546 108.362 52.1424 108.252 52.1791C107.983 52.1791 101.341 52.2036 100.999 57.2306C100.461 65.1442 92.5594 65.3888 92.4861 65.3888V65.4011ZM101.855 46.039C100.705 46.039 99.4456 46.3326 98.1124 46.9319C93.5135 48.9745 94.1617 55.3225 94.6388 59.9704L94.6877 60.5086C94.8345 62.0375 94.4553 63.175 93.9905 63.9578C96.0453 63.4808 99.4579 61.9763 99.7881 57.1572C100.118 52.3136 105.268 50.9927 108.093 50.956L128.006 39.1651C128.397 38.7614 131.002 35.7281 128.703 29.588C128.201 28.2548 127.272 27.4231 125.853 27.0561C121.095 25.8085 112.545 30.2362 109.316 32.9638C104.179 37.2814 108.509 49.0968 108.546 49.2191C108.656 49.5249 108.509 49.8796 108.203 50.0019C107.897 50.1243 107.543 49.9775 107.408 49.6717C107.408 49.6472 106.393 47.36 104.02 46.4304C103.347 46.1613 102.626 46.039 101.855 46.039Z" fill="#05141F"/>
<path d="M107.188 47.042C107.702 46.9197 108.228 47.1766 108.644 47.6781C108.668 45.4398 108.692 43.9108 108.692 43.9108C108.692 38.4679 113.108 34.0647 118.539 34.0647H122.807C125.89 34.0647 128.397 36.5599 128.397 39.6544V52.6807C128.397 58.1113 123.994 62.5268 118.563 62.5268C118.588 64.2636 118.82 65.9882 119.26 67.6639C119.701 69.3396 116.569 72.5075 116.569 72.5075C116.569 72.5075 107.31 68.3733 108.044 65.9393C108.326 65.0097 108.497 57.4386 108.607 51.4331C108.509 51.4942 108.399 51.5431 108.277 51.5676C107.433 51.7633 106.503 50.9194 106.21 49.6718C105.916 48.4242 106.356 47.25 107.2 47.042H107.188Z" fill="white"/>
<path d="M116.557 73.4125C116.435 73.4125 116.3 73.388 116.178 73.3269C113.169 71.9814 106.283 68.5445 107.151 65.6579C107.225 65.4133 107.457 63.7131 107.653 52.4726C107.212 52.3992 106.772 52.1791 106.405 51.8244C105.879 51.3473 105.488 50.6502 105.304 49.8674C104.889 48.0938 105.622 46.4548 106.98 46.1368C107.237 46.0757 107.494 46.0634 107.751 46.1124C107.763 44.7425 107.775 43.8985 107.775 43.8985C107.775 37.9664 112.606 33.135 118.539 33.135H122.807C126.391 33.135 129.314 36.046 129.314 39.6298V52.6561C129.314 58.2702 124.997 62.8936 119.505 63.3829C119.578 64.7528 119.798 66.0982 120.141 67.4192C120.667 69.4496 118.037 72.3117 117.218 73.1312C117.046 73.3146 116.802 73.4003 116.569 73.4003L116.557 73.4125ZM108.57 50.5278C108.729 50.5278 108.876 50.5645 109.01 50.6379C109.304 50.8092 109.512 51.1027 109.5 51.433C109.28 64.9607 109.01 65.8536 108.9 66.1961C108.68 66.9177 111.909 69.3273 116.325 71.3821C117.474 70.0978 118.502 68.4955 118.343 67.884C117.89 66.1349 117.646 64.3369 117.621 62.5267C117.621 62.2821 117.707 62.0497 117.89 61.8662C118.074 61.6827 118.294 61.5971 118.539 61.5971C123.456 61.5971 127.455 57.5853 127.455 52.6683V39.642C127.455 37.0735 125.364 34.9819 122.783 34.9819H118.514C113.585 34.9819 109.585 38.9938 109.585 43.9107C109.585 43.9107 109.573 45.4396 109.536 47.6902C109.536 48.0694 109.292 48.4118 108.925 48.5464C108.558 48.6687 108.154 48.5586 107.91 48.2651C107.689 48.0082 107.482 47.9104 107.371 47.9348C107.151 47.9837 106.858 48.6075 107.053 49.4515C107.151 49.8674 107.359 50.2465 107.604 50.4789C107.751 50.6135 107.922 50.6868 108.007 50.6624C108.166 50.5645 108.35 50.5156 108.521 50.5156L108.57 50.5278Z" fill="#05141F"/>
<path d="M125.07 45.2439C124.018 45.2439 124.018 47.4944 125.07 47.4944C126.122 47.4944 126.122 45.2439 125.07 45.2439Z" fill="#05141F"/>
<path d="M115.774 45.2439C114.722 45.2439 114.722 47.4944 115.774 47.4944C116.826 47.4944 116.826 45.2439 115.774 45.2439Z" fill="#05141F"/>
<path d="M117.756 41.0609C117.756 41.0609 116.007 38.737 114.123 41.0609H117.756Z" fill="white"/>
<path d="M117.756 41.6725C117.572 41.6725 117.389 41.5868 117.267 41.4278C117.267 41.4278 116.655 40.645 115.921 40.6328C115.456 40.6328 115.041 40.9019 114.6 41.4401C114.392 41.6969 114.001 41.7459 113.744 41.5257C113.487 41.3178 113.438 40.9264 113.658 40.6695C114.356 39.8133 115.138 39.3975 115.958 39.4097C117.303 39.4341 118.221 40.6328 118.257 40.694C118.465 40.9631 118.404 41.3422 118.135 41.5502C118.025 41.6358 117.903 41.6725 117.768 41.6725H117.756Z" fill="#05141F"/>
<path d="M121.829 49.4392C121.829 49.4392 121.902 50.3688 122.624 51.4451C122.905 51.8732 122.758 52.4603 122.281 52.6438C122.037 52.7416 121.743 52.815 121.388 52.8517" fill="white"/>
<path d="M121.829 49.4392C121.829 49.4392 121.902 50.3688 122.624 51.4451C122.905 51.8732 122.758 52.4603 122.281 52.6438C122.037 52.7416 121.743 52.815 121.388 52.8517" stroke="#05141F" stroke-linecap="round" stroke-linejoin="round"/>
<path d="M124.287 56.032C124.287 56.032 121.389 58.0624 117.756 56.032H124.287Z" fill="white"/>
<path d="M121.07 57.5608C120.006 57.5608 118.783 57.3162 117.462 56.5701C117.169 56.4111 117.059 56.0319 117.23 55.7384C117.389 55.4448 117.768 55.3347 118.062 55.506C121.303 57.3162 123.847 55.6161 123.945 55.5427C124.226 55.347 124.605 55.4204 124.801 55.7017C124.997 55.983 124.923 56.3622 124.654 56.5456C124.569 56.6068 123.162 57.5731 121.083 57.5731L121.07 57.5608Z" fill="#05141F"/>
<path d="M104.032 133.358H145.362C146.353 133.358 147.221 132.685 147.478 131.731L159.954 86.3407C160.321 84.9463 159.281 83.5764 157.838 83.5764H116.508C115.518 83.5764 114.649 84.2491 114.392 85.2032L101.916 130.593C101.55 131.988 102.589 133.358 104.032 133.358Z" fill="white"/>
<path d="M145.362 134.275H104.032C103.054 134.275 102.161 133.835 101.562 133.064C100.962 132.294 100.767 131.303 101.024 130.361L113.499 84.9709C113.854 83.6132 115.102 82.6714 116.508 82.6714H157.838C158.816 82.6714 159.709 83.1117 160.308 83.8823C160.908 84.6529 161.103 85.6436 160.847 86.5854L148.371 131.976C148.004 133.333 146.768 134.275 145.362 134.275ZM116.508 84.5061C115.933 84.5061 115.42 84.8975 115.273 85.4479L102.797 130.838C102.699 131.217 102.773 131.621 103.017 131.939C103.262 132.257 103.629 132.44 104.032 132.44H145.362C145.937 132.44 146.45 132.049 146.597 131.499L159.073 86.1084C159.171 85.7292 159.098 85.3256 158.853 85.0076C158.608 84.6895 158.241 84.5061 157.838 84.5061H116.508Z" fill="#000C19"/>
<path d="M104.827 113.788L112.264 113.335L119.358 108.443L117.254 114.913C115.897 119.096 112.252 122.117 107.897 122.692L102.247 123.426L94.7122 128.942L89.7708 120.099L106.919 107.587L104.827 113.788Z" fill="white"/>
<path d="M94.7123 129.872C94.6511 129.872 94.5777 129.872 94.5166 129.847C94.2597 129.786 94.0396 129.627 93.9172 129.395L88.9758 120.552C88.7434 120.148 88.8657 119.634 89.2327 119.365L106.381 106.853C106.699 106.62 107.139 106.62 107.469 106.853C107.787 107.085 107.922 107.501 107.8 107.88L106.148 112.785L111.971 112.43L118.857 107.684C119.187 107.464 119.615 107.477 119.921 107.709C120.239 107.941 120.361 108.357 120.251 108.724L118.147 115.194C116.692 119.683 112.717 122.986 108.032 123.597L102.614 124.307L95.2627 129.676C95.1037 129.786 94.9202 129.847 94.7245 129.847L94.7123 129.872ZM90.9695 120.381L95.0058 127.609L101.709 122.704C101.831 122.619 101.978 122.558 102.137 122.533L107.787 121.799C111.775 121.286 115.151 118.472 116.398 114.644L117.67 110.742L112.802 114.094C112.668 114.192 112.509 114.24 112.338 114.253L104.901 114.705C104.595 114.705 104.302 114.595 104.118 114.351C103.935 114.106 103.886 113.788 103.971 113.507L105.133 110.045L90.9817 120.381H90.9695Z" fill="#05141F"/>
<path d="M158.193 109.005L161.226 101.018L158.193 93.0925L153.802 109.629L158.193 109.005Z" fill="white"/>
<path d="M153.801 110.547C153.545 110.547 153.288 110.437 153.117 110.241C152.909 110.008 152.835 109.69 152.921 109.397L157.312 92.8602C157.41 92.4811 157.752 92.1998 158.156 92.1753C158.559 92.1753 158.914 92.3955 159.061 92.7624L162.094 100.688C162.18 100.896 162.18 101.129 162.094 101.336L159.061 109.336C158.939 109.654 158.657 109.874 158.327 109.923L153.936 110.547C153.936 110.547 153.85 110.547 153.814 110.547H153.801ZM158.351 96.0648L155.037 108.528L157.52 108.174L160.235 101.018L158.339 96.0771L158.351 96.0648Z" fill="#05141F"/>
<path d="M91.3243 117.824L97.0485 128.404C97.709 129.627 97.4644 131.144 96.4614 132.098L88.7068 139.437C87.288 140.782 84.9763 140.476 83.9611 138.801L76.2554 126.056C75.3381 124.551 75.8885 122.582 77.4419 121.75L87.1779 116.576C88.6701 115.781 90.5171 116.344 91.3243 117.824Z" fill="#05141F"/>
<path d="M122.123 40.498C122.123 40.498 123.591 38.1251 125.535 40.498H122.123Z" fill="white"/>
<path d="M125.535 41.1096C125.352 41.1096 125.181 41.0362 125.058 40.8894C124.593 40.3146 124.141 40.0577 123.737 40.0577C123.224 40.0944 122.771 40.6203 122.636 40.8283C122.453 41.1096 122.086 41.1952 121.793 41.024C121.511 40.8405 121.426 40.4736 121.597 40.18C121.634 40.1311 122.392 38.9202 123.652 38.8346C124.483 38.7857 125.266 39.2137 126 40.1066C126.208 40.3635 126.171 40.7549 125.914 40.9628C125.804 41.0607 125.67 41.0974 125.523 41.0974L125.535 41.1096Z" fill="#05141F"/>
<path d="M91.2385 119.365C91.2385 119.365 91.2018 119.365 91.1896 119.365C90.6881 119.34 90.2967 118.9 90.3212 118.399L91.5076 97.7401C91.9235 88.1875 82.432 86.2428 82.0284 86.1571C81.5269 86.0593 81.2089 85.5823 81.3067 85.0808C81.4046 84.5793 81.8816 84.2613 82.3831 84.3469C82.4932 84.3714 93.8315 86.6586 93.3423 97.8257L92.1558 118.497C92.1314 118.986 91.7278 119.365 91.2385 119.365Z" fill="#05141F"/>
<path d="M68.5986 131.596C68.5986 131.596 71.473 124.478 77.8577 123.463" stroke="#05141F" stroke-width="1.5" stroke-linecap="round" stroke-linejoin="round"/>
<path d="M114.013 171.984C114.013 171.984 113.952 171.984 113.927 171.984C113.426 171.935 113.059 171.482 113.108 170.981L116.838 133.37C116.887 132.868 117.352 132.501 117.841 132.55C118.343 132.599 118.71 133.052 118.661 133.553L114.93 171.164C114.881 171.641 114.49 171.996 114.013 171.996V171.984Z" fill="#05141F"/>
<path d="M110.356 80.2129C110.173 80.2129 110.001 80.1884 109.855 80.164C106.051 79.4668 102.565 70.5502 101.904 68.7767C101.733 68.2997 101.965 67.7737 102.442 67.6025C102.919 67.4313 103.445 67.6636 103.617 68.1407C105.109 72.1525 108.142 77.9868 110.185 78.366C110.429 78.4149 110.784 78.4027 111.249 77.8645L115.823 71.9324C115.995 71.7122 116.252 71.5776 116.533 71.5776C116.802 71.5654 117.071 71.6877 117.254 71.8957L121.523 76.886C121.719 77.0695 122.538 77.6688 123.236 77.5343C123.7 77.4486 124.128 77.0328 124.495 76.2989L127.186 67.786C127.333 67.2967 127.859 67.0399 128.336 67.1866C128.813 67.3334 129.082 67.8593 128.935 68.3364L126.22 76.9227C126.22 76.9227 126.183 77.0083 126.171 77.045C125.523 78.3782 124.642 79.1488 123.541 79.3323C121.804 79.638 120.349 78.2804 120.19 78.1214L116.594 73.926L112.668 79.002C111.848 79.9316 111.017 80.1884 110.356 80.1884V80.2129Z" fill="#05141F"/>
</svg>
